<?xml version="1.0" encoding="UTF-8" standalone="no"?>
<svg
   xmlns:dc="http://purl.org/dc/elements/1.1/"
   xmlns:cc="http://creativecommons.org/ns#"
   xmlns:rdf="http://www.w3.org/1999/02/22-rdf-syntax-ns#"
   xmlns:svg="http://www.w3.org/2000/svg"
   xmlns="http://www.w3.org/2000/svg"
   xmlns:sodipodi="http://sodipodi.sourceforge.net/DTD/sodipodi-0.dtd"
   xmlns:inkscape="http://www.inkscape.org/namespaces/inkscape"
   sodipodi:docname="panneau_arrow.svg"
   inkscape:version="1.0 (4035a4fb49, 2020-05-01)"
   id="svg113"
   version="1.1"
   viewBox="0 0 793.70081 1122.5197"
   height="1122.5197"
   width="793.70081">
  <defs
     id="defs107" />
  <sodipodi:namedview
     units="px"
     inkscape:window-maximized="1"
     inkscape:window-y="-8"
     inkscape:window-x="-8"
     inkscape:window-height="801"
     inkscape:window-width="1536"
     showgrid="false"
     inkscape:document-rotation="0"
     inkscape:current-layer="layer1"
     inkscape:document-units="px"
     inkscape:cy="165.17451"
     inkscape:cx="127.53822"
     inkscape:zoom="2.3597866"
     inkscape:pageshadow="2"
     inkscape:pageopacity="0.0"
     borderopacity="1.0"
     bordercolor="#666666"
     pagecolor="#ffffff"
     id="base" />
  <metadata
     id="metadata110">
    <rdf:RDF>
      <cc:Work
         rdf:about="">
        <dc:format>image/svg+xml</dc:format>
        <dc:type
           rdf:resource="http://purl.org/dc/dcmitype/StillImage" />
        <dc:title></dc:title>
      </cc:Work>
    </rdf:RDF>
  </metadata>
  <g
     id="layer1"
     inkscape:groupmode="layer"
     inkscape:label="Calque 1">
    <path
       sodipodi:nodetypes="sssssscsssscssssscscssssssssscssss"
       id="path12209"
       d="m 129.2164,142.75466 c -0.543,-1.80146 -1.19664,-7.20149 -1.45259,-12.00005 -0.628,-11.77433 0.37529,-11.09154 -15.2312,-10.36567 -17.862723,0.83082 -18.273665,0.58422 -18.273665,-10.96555 0,-10.543823 0.222352,-10.760308 11.053515,-10.760308 12.11574,0 14.43744,1.391878 3.36211,2.015628 l -8.947634,0.50391 -0.289645,7.18279 c -0.36142,8.96331 -0.941372,8.70788 16.847439,7.41925 16.94638,-1.22762 15.31286,-2.42358 16.11412,11.79794 1.18259,20.98936 6.67811,20.28714 7.57131,-0.96748 l 0.5182,-12.33101 5.46797,-0.65621 c 12.62602,-1.51517 16.9011,-1.10931 16.9011,1.60451 0,4.00135 1.25393,3.81028 11.3188,-1.7244 11.39067,-6.26374 11.39858,-5.50916 -0.15949,-15.235108 -10.3897,-8.742878 -11.15934,-8.805555 -11.15934,-0.908911 v 5.636619 l -10.59356,-0.65706 c -5.82646,-0.36138 -14.66226,-0.67083 -19.63508,-0.68768 -7.0517,-0.0229 -32.18499,-1.41042 -30.77899,-2.368983 1.57754,-1.075491 30.82466,0.282249 41.28153,0.587611 16.89315,0.493532 18.03664,0.208262 17.63409,-4.400322 -1.10496,-12.650405 0.5488,-12.617124 15.56679,0.313331 15.45702,13.308433 15.43654,12.512763 0.53199,20.656663 -4.69633,2.5661 -9.52265,5.56817 -10.72512,6.67129 -2.71631,2.49188 -5.02088,1.70575 -5.82052,-1.98546 -0.33536,-1.54803 -0.75862,-3.31963 -0.94057,-3.93687 -0.21135,-0.71699 -3.14311,-1.06998 -8.11894,-0.9775 l -7.78816,0.14483 -0.0705,11.05558 c -0.0932,14.6309 -2.08935,18.51663 -9.54572,18.58211 -3.2646,0.0285 -3.7556,-0.31468 -4.63835,-3.24332 z"
       style="fill:#000000;stroke-width:1.00097" />
    <path
       id="path12225"
       d="m 135.27597,141.58348 c -1.22593,-1.86561 -1.96285,-5.83137 -2.52114,-13.56747 -0.66243,-9.17921 -0.87754,-10.79077 -1.56555,-11.72956 -1.0364,-1.41413 -3.64714,-1.55589 -14.12118,-0.76676 -12.72165,0.95846 -15.47498,0.85241 -16.69994,-0.64328 -0.836433,-1.02131 -0.884069,-1.53643 -0.664138,-7.17994 0.130318,-3.34384 0.298418,-6.14297 0.373538,-6.22029 0.41274,-0.42479 15.04388,-0.42686 25.11011,-0.004 6.39226,0.26881 15.74598,0.66265 20.78603,0.87519 5.04005,0.21255 10.89711,0.49652 13.01568,0.63104 l 3.85198,0.24458 0.18876,-4.934665 c 0.19838,-5.185108 0.48115,-6.522397 1.38064,-6.529321 1.5938,-0.01225 16.38852,12.098306 17.57944,14.390046 0.69338,1.33436 0.67759,1.40272 -0.61024,2.64091 -2.00261,1.9254 -15.47122,8.85873 -16.90396,8.70177 -1.01489,-0.1112 -1.21951,-0.38871 -1.42234,-1.92894 -0.3302,-2.50766 -1.39532,-2.93451 -7.17143,-2.87397 -4.29157,0.0449 -14.98209,1.09064 -15.3845,1.50478 -0.0932,0.096 -0.36811,4.13402 -0.61073,8.97337 -0.60308,12.02912 -1.6975,18.20317 -3.42139,19.30161 -0.2356,0.15012 -0.77095,-0.24837 -1.18964,-0.88556 z"
       style="fill:#ffffff;stroke-width:0.449909" />
  </g>
</svg>
