<?xml version="1.0" encoding="UTF-8" standalone="no"?>
<svg
   xmlns:dc="http://purl.org/dc/elements/1.1/"
   xmlns:cc="http://creativecommons.org/ns#"
   xmlns:rdf="http://www.w3.org/1999/02/22-rdf-syntax-ns#"
   xmlns:svg="http://www.w3.org/2000/svg"
   xmlns="http://www.w3.org/2000/svg"
   xmlns:sodipodi="http://sodipodi.sourceforge.net/DTD/sodipodi-0.dtd"
   xmlns:inkscape="http://www.inkscape.org/namespaces/inkscape"
   sodipodi:docname="panneau_arrow.svg"
   inkscape:version="1.0 (4035a4fb49, 2020-05-01)"
   id="svg113"
   version="1.1"
   viewBox="0 0 210 297"
   height="297mm"
   width="210mm">
  <defs
     id="defs107" />
  <sodipodi:namedview
     inkscape:window-maximized="1"
     inkscape:window-y="-8"
     inkscape:window-x="-8"
     inkscape:window-height="801"
     inkscape:window-width="1536"
     showgrid="false"
     inkscape:document-rotation="0"
     inkscape:current-layer="layer1"
     inkscape:document-units="mm"
     inkscape:cy="527.78151"
     inkscape:cx="596.97099"
     inkscape:zoom="1.6686211"
     inkscape:pageshadow="2"
     inkscape:pageopacity="0.0"
     borderopacity="1.0"
     bordercolor="#666666"
     pagecolor="#ffffff"
     id="base" />
  <metadata
     id="metadata110">
    <rdf:RDF>
      <cc:Work
         rdf:about="">
        <dc:format>image/svg+xml</dc:format>
        <dc:type
           rdf:resource="http://purl.org/dc/dcmitype/StillImage" />
        <dc:title></dc:title>
      </cc:Work>
    </rdf:RDF>
  </metadata>
  <g
     id="layer1"
     inkscape:groupmode="layer"
     inkscape:label="Calque 1">
    <path
       sodipodi:nodetypes="sssssscsssscssssscscssssssssscssss"
       id="path12209"
       d="m 106.66334,144.86378 c -0.19268,-0.63059 -0.42462,-2.52084 -0.51544,-4.20055 -0.22284,-4.12155 0.13317,-3.88254 -5.40468,-3.62845 -6.338455,0.29082 -6.484275,0.2045 -6.484275,-3.83844 0,-3.69081 0.0789,-3.76659 3.92226,-3.76659 4.299175,0 5.123015,0.48722 1.19302,0.70556 l -3.175,0.17639 -0.10278,2.5143 c -0.12825,3.13756 -0.33404,3.04815 5.978185,2.59707 6.0133,-0.42972 5.43366,-0.84836 5.71798,4.12981 0.41963,7.34722 2.36968,7.10141 2.68662,-0.33866 l 0.18388,-4.31641 1.94027,-0.2297 c 4.48025,-0.53038 5.99723,-0.38831 5.99723,0.56165 0,1.40065 0.44495,1.33377 4.0164,-0.60362 4.04189,-2.19259 4.0447,-1.92845 -0.0566,-5.33297 -3.68671,-3.0604 -3.95981,-3.08234 -3.95981,-0.31816 v 1.97307 l -3.75905,-0.23 c -2.06747,-0.1265 -5.20279,-0.23482 -6.96736,-0.24072 -2.50224,-0.008 -11.420605,-0.49371 -10.921695,-0.82925 0.55978,-0.37647 10.937905,0.0988 14.648445,0.20569 5.99441,0.17276 6.40017,0.0729 6.25733,-1.54031 -0.39209,-4.42821 0.19473,-4.41656 5.52376,0.10968 5.48481,4.65855 5.47754,4.38003 0.18877,7.23076 -1.66646,0.89825 -3.37904,1.94911 -3.80573,2.33525 -0.96386,0.87227 -1.78162,0.59709 -2.06537,-0.695 -0.119,-0.54188 -0.26919,-1.16202 -0.33375,-1.37808 -0.075,-0.25098 -1.11531,-0.37454 -2.88095,-0.34217 l -2.76357,0.0507 -0.025,3.86995 c -0.0331,5.12147 -0.74139,6.48165 -3.38723,6.50457 -1.15842,0.01 -1.33265,-0.11015 -1.64588,-1.13531 z"
       style="fill:#4a4a4a;stroke-width:0.352778" />
    <path
       transform="scale(0.26458333)"
       id="path12225"
       d="m 411.26375,545.96719 c -1.64413,-2.46822 -2.63245,-7.71493 -3.38119,-17.94982 -0.88842,-12.14414 -1.1769,-14.27624 -2.09963,-15.51827 -1.38994,-1.87089 -4.8913,-2.05844 -18.93844,-1.01442 -17.06147,1.26805 -20.75407,1.12774 -22.3969,-0.85107 -1.12177,-1.35119 -1.18567,-2.03269 -0.8907,-9.49909 0.17477,-4.42391 0.4002,-8.12717 0.50096,-8.22946 0.55354,-0.56201 20.17591,-0.56474 33.67611,-0.005 8.5729,0.35564 21.11751,0.87669 27.87691,1.15789 6.75941,0.2812 14.61453,0.65689 17.45584,0.83486 l 5.16601,0.32358 0.25318,-6.52858 c 0.26603,-6.85992 0.64527,-8.62916 1.85162,-8.63832 2.13751,-0.0162 21.97926,16.00611 23.57644,19.0381 0.92993,1.76535 0.90874,1.8558 -0.81842,3.49393 -2.68577,2.54731 -20.74903,11.72014 -22.67052,11.51247 -1.36111,-0.14711 -1.63555,-0.51426 -1.90756,-2.552 -0.44285,-3.31764 -1.87132,-3.88236 -9.61788,-3.80227 -5.75558,0.0595 -20.09305,1.44292 -20.63271,1.99084 -0.1251,0.12701 -0.49369,5.46932 -0.81908,11.8718 -0.80883,15.91457 -2.27659,24.08288 -4.58856,25.53611 -0.31598,0.19862 -1.03394,-0.3286 -1.59548,-1.17158 z"
       style="fill:#00ffff;stroke-width:0.599297" />
  </g>
</svg>
