<?xml version="1.0" encoding="UTF-8" standalone="no"?>
<svg
   xmlns:dc="http://purl.org/dc/elements/1.1/"
   xmlns:cc="http://creativecommons.org/ns#"
   xmlns:rdf="http://www.w3.org/1999/02/22-rdf-syntax-ns#"
   xmlns:svg="http://www.w3.org/2000/svg"
   xmlns="http://www.w3.org/2000/svg"
   xmlns:sodipodi="http://sodipodi.sourceforge.net/DTD/sodipodi-0.dtd"
   xmlns:inkscape="http://www.inkscape.org/namespaces/inkscape"
   inkscape:version="1.0 (4035a4fb49, 2020-05-01)"
   sodipodi:docname="stick2.svg"
   viewBox="0 0 27.200001 262.07999"
   height="262.07999"
   width="27.200001"
   id="svg101"
   version="1.1">
  <metadata
     id="metadata107">
    <rdf:RDF>
      <cc:Work
         rdf:about="">
        <dc:format>image/svg+xml</dc:format>
        <dc:type
           rdf:resource="http://purl.org/dc/dcmitype/StillImage" />
        <dc:title></dc:title>
      </cc:Work>
    </rdf:RDF>
  </metadata>
  <defs
     id="defs105" />
  <sodipodi:namedview
     inkscape:current-layer="layer4"
     inkscape:window-maximized="1"
     inkscape:window-y="-8"
     inkscape:window-x="1912"
     inkscape:cy="4.0760743"
     inkscape:cx="30.245241"
     inkscape:zoom="12.622101"
     showgrid="false"
     id="namedview103"
     inkscape:window-height="1017"
     inkscape:window-width="1920"
     inkscape:pageshadow="2"
     inkscape:pageopacity="0"
     guidetolerance="10"
     gridtolerance="10"
     objecttolerance="10"
     borderopacity="1"
     bordercolor="#666666"
     pagecolor="#ffffff" />
  <g
     id="g109"
     inkscape:label="Image"
     inkscape:groupmode="layer" />
  <g
     inkscape:label="Image 1"
     id="layer4"
     inkscape:groupmode="layer">
    <path
       style="fill:#272523;fill-opacity:1;stroke:#000000;stroke-width:0;stroke-miterlimit:4;stroke-dasharray:none;stroke-opacity:1"
       d="m 10.857119,256.13106 c -0.72321,-1.26257 -0.9362604,-4.91763 -1.6655304,-28.57347 -0.894866,-29.02728 -3.294,-95.14042 -3.686895,-101.59999 -0.139164,-2.288 -0.267375,-8.33863 -0.284914,-13.44584 -0.01754,-5.10721 -0.31275,-17.923216 -0.656025,-28.480006 C 2.8250666,30.56159 2.4539276,8.1179624 3.2657786,5.5402812 3.6347976,4.3686205 4.0615236,3.9129018 6.1237296,2.4881556 7.4570186,1.5670068 9.0518916,0.65138338 9.6678886,0.45343708 10.954479,0.04000253 16.793309,0.16257893 18.019469,0.62876428 c 1.36444,0.51875942 4.43086,3.56538292 5.12733,5.09422992 0.63961,1.4040442 0.64767,1.6716772 0.31897,10.5975088 -0.18547,5.036398 -0.40637,9.805087 -0.4909,10.597087 -0.0845,0.792 -0.23564,4.968 -0.33581,9.28 -0.10018,4.311999 -0.25506,8.199999 -0.34418,8.639999 -0.0891,0.44 -0.30334,5.12 -0.47604,10.4 -0.1727,5.28 -0.44804,12.983999 -0.61187,17.119999 -0.49716,12.551513 -0.94788,26.371107 -1.29936,39.840012 -0.39836,15.26572 -0.47579,17.72383 -1.3003,41.27999 -0.35114,10.032 -0.77096,23.352 -0.93294,29.6 -0.16198,6.248 -0.37612,14.312 -0.47587,17.92 -0.36386,13.16091 -0.48093,17.71282 -0.82302,32 -0.19174,8.008 -0.44738,16.504 -0.5681,18.88 l -0.21949,4.32 -2.29279,0.0935 c -1.26103,0.0514 -2.35812,-0.0206 -2.43798,-0.16 z m 3.42688,-6.25347 c 0.12221,-2.508 0.28428,-8.016 0.36016,-12.24 0.0759,-4.224 0.27685,-9.768 0.44657,-12.32 0.16973,-2.552 0.2952,-7.52 0.27882,-11.04 -0.0297,-6.37493 1.10899,-43.1506 1.63165,-52.69835 0.15109,-2.7601 0.17477,-5.4961 0.0526,-6.08 -0.21168,-1.01185 -0.23894,-0.97159 -0.58119,0.85835 -0.19751,1.056 -0.5942,2.784 -0.88155,3.84 -1.03159,3.79104 -1.15644,6.67101 -0.44291,10.21725 0.72756,3.616 0.69366,6.5751 -0.22938,20.02275 -0.27182,3.96 -0.66446,10.224 -0.87255,13.92 l -0.37835,6.72 h -0.79685 c -0.62645,0 -0.84076,-0.2053 -1.00214,-0.96 -0.11291,-0.528 -0.22355,-7.08 -0.24588,-14.56 -0.0444,-14.87164 -0.33022,-19.71122 -1.37963,-23.36 -0.3796404,-1.32 -0.8735004,-3.624 -1.0974804,-5.12 l -0.407218,-2.72 0.157066,4.16 c 0.08639,2.288 0.225487,7.616 0.309112,11.84 0.20382,10.29519 0.76445,27.211 0.9545004,28.8 0.0842,0.704 0.22392,3.368 0.31049,5.92 0.0866,2.552 0.31321,8.168 0.50366,12.48 0.19045,4.312 0.39572,9.208 0.45616,10.88 0.47479,13.134 0.56262,14.4 0.99907,14.4 0.24153,0 0.43914,0.216 0.43914,0.48 0,0.264 -0.18,0.48221 -0.4,0.4849 -0.60309,0.007 0.45111,0.62427 1.07697,0.6302 0.44171,0.004 0.5493,-0.65886 0.73915,-4.5551 z m -0.5212,-63.04 c -0.0194,-0.748 0.079,-4.12953 0.21863,-7.51452 0.183,-4.43562 0.1531,-6.276 -0.10704,-6.58944 -0.19852,-0.23921 -0.28312,-0.51274 -0.18801,-0.60786 0.0951,-0.0951 -0.0501,-1.1348 -0.32277,-2.31041 -0.5799,-2.50049 -0.61808,-4.65197 -0.13377,-7.53777 0.30055,-1.79078 0.44341,-2.85793 0.57832,-4.32 0.0162,-0.176 0.14402,-0.13968 0.28396,0.0807 0.23567,0.37118 0.48122,-0.37609 1.16571,-3.54752 0.12714,-0.5891 0.0791,-0.83474 -0.13711,-0.70111 -0.38545,0.23822 -0.41209,0.10683 -0.12829,-0.63274 0.16315,-0.42518 0.25926,-0.44665 0.4751,-0.10617 0.57602,0.9087 0.27813,-4.7141 -0.37453,-7.0693 -1.99253,-7.19029 -1.91163,-9.77488 0.57172,-18.26386 0.63064,-2.15576 0.82732,-3.68254 0.94811,-7.36 0.16299,-4.96224 0.0124,-5.98727 -1.36273,-9.27447 -0.96075,-2.29667 -1.39501,-5.97009 -1.06675,-9.02383 0.20123,-1.87213 1.73502,-7.161841 2.27548,-7.847697 0.16729,-0.212288 0.19751,-0.558537 0.0672,-0.76944 -0.14992,-0.242585 -0.10126,-0.299577 0.13245,-0.155132 0.27307,0.168761 0.35691,-0.882704 0.32138,-4.030557 -0.0327,-2.899078 -0.12341,-3.850198 -0.28406,-2.978886 -0.17952,0.973689 -0.20776,0.786038 -0.11799,-0.784138 0.0921,-1.611315 -0.0872,-2.734521 -0.81755,-5.12 -2.18817,-7.147289 -2.34001,-9.075231 -1.09754,-13.935862 1.22124,-4.777609 1.49211,-6.594729 1.10852,-7.43662 -0.20981,-0.460477 -0.21579,-0.723379 -0.0165,-0.723379 0.17223,0 0.33018,0.252 0.351,0.56 0.0986,1.457625 0.53075,-1.672368 0.56428,-4.086432 0.0396,-2.848112 -0.86273,-7.040595 -1.72032,-7.993568 -0.23758,-0.264 -0.53503,-0.912 -0.66101,-1.44 -0.12599,-0.528 -0.34689,-1.111145 -0.4909,-1.295875 -0.14401,-0.184733 -0.34696,-0.976733 -0.45099,-1.76 -0.10404,-0.78327 -0.25219,-1.827283 -0.32922,-2.320032 -0.0948,-0.606592 -0.0243,-0.824336 0.21853,-0.674281 0.255,0.157593 0.31501,-0.30409 0.2077,-1.598 -0.083,-1.000794 -0.0508,-1.657754 0.0714,-1.459907 0.2908,0.470512 0.6712,-1.431172 0.43376,-2.168404 -0.13262,-0.411788 -0.10053,-0.450745 0.11921,-0.144697 0.56997,0.793856 2.14803,-6.720373 2.15422,-10.257747 0.003,-1.715419 0.0932,-3.119419 0.2004,-3.12 0.35553,-0.0019 0.32377,-5.062618 -0.0446,-7.108565 -0.33799,-1.877179 -0.74662,-3.090762 -1.70123,-5.0524896 -0.74233,-1.525491 -3.30392,-1.110433 -4.23281,0.685849 -0.5536804,1.0706806 -0.4583104,1.8601066 0.6903,5.7141496 0.83957,2.817082 0.90485,3.427173 0.89024,8.32 -0.0154,5.162932 -0.0409,5.356149 -1.1468,8.714467 -0.62205,1.888953 -1.0047904,3.356457 -0.85052,3.261113 0.15427,-0.09534 0.28048,0.04265 0.28048,0.30665 0,0.597898 -0.6308904,1.031488 -0.6644504,0.456656 -0.0435,-0.744723 -1.253004,3.711427 -1.254296,4.621113 -6.72e-4,0.484 0.152454,0.88 0.340315,0.88 0.191602,0 0.255655,0.270676 0.145891,0.616512 -0.205941,0.648861 0.51728,2.697338 1.2469004,3.531776 0.54154,0.619335 0.95523,1.932925 0.60721,1.928042 -0.14386,-0.0019 -0.54078,-0.586343 -0.8820404,-1.298493 -0.938898,-1.959302 -1.190319,-1.828125 -0.48242,0.251706 0.9993804,2.936233 0.9778504,2.899017 1.2553804,2.170457 0.36753,-0.964832 1.20451,2.108432 1.47198,5.404915 0.25135,3.097766 -0.0663,4.756102 -1.65248,8.626179 -0.5880904,1.434899 -0.9469904,2.651366 -0.7975604,2.703261 0.14944,0.05189 0.14258,0.627894 -0.0152,1.28 -0.15782,0.652105 -0.29303,2.652761 -0.30047,4.445907 -0.0129,3.105673 0.0648,3.489065 1.6374204,8.085641 l 1.65095,4.825376 -0.15814,3.754361 c -0.17387,4.12776 -0.64283,7.483129 -1.32791,9.500966 -0.90255,2.658436 -1.2670104,6.524955 -0.82918,8.796865 0.68243,3.54113 1.23823,5.45989 1.8888,6.52055 0.34274,0.55879 0.71771,1.73599 0.83326,2.61599 0.11555,0.88 0.36818,2.36081 0.5614,3.29068 0.26334,1.26728 0.25783,1.78418 -0.022,2.064 -0.20532,0.20532 -0.37348,0.88452 -0.37369,1.50932 -4.8e-4,1.4656 -0.65727,4.80119 -1.72422,8.75667 -1.17161,4.34347 -1.20507,7.24436 -0.12619,10.93932 1.98039,6.78244 2.03686,7.12374 1.85326,11.2 -0.14931,3.31491 -0.29258,4.0889 -1.04772,5.66019 -0.48111,1.0011 -0.87475,1.97817 -0.87475,2.17126 0,0.19309 -0.20967,0.67107 -0.46594,1.06219 -0.6758,1.0314 -0.17873,5.63508 1.04976,9.72248 0.82169,2.73389 1.01563,4.04264 1.20923,8.16 0.12682,2.69714 0.20929,5.26388 0.18328,5.70388 -0.0549,0.92881 0.23185,2.88 0.42327,2.88 0.0718,0 0.11472,-0.612 0.0953,-1.36 z m -3.8000604,-30.32 c 0.4115104,-1.32 0.8735204,-2.5368 1.0266804,-2.704 0.71836,-0.7842 0.31659,-3.44423 -1.8609304,-12.3208 -0.647718,-2.6404 -0.423366,-7.19584 0.52764,-10.71365 0.3774304,-1.39615 0.7521004,-2.64501 0.8325904,-2.77525 0.22382,-0.36214 0.72112,-3.16397 1.09359,-6.16137 0.36979,-2.97586 0.37356,-2.95419 -1.7586004,-10.12492 -1.086078,-3.65265 -1.186226,-4.31493 -1.153244,-7.62653 0.02219,-2.22813 0.283155,-4.838755 0.676774,-6.770275 0.35236,-1.729057 0.64065,-3.488321 0.64065,-3.909473 0,-0.421155 0.1590804,-0.924813 0.3535104,-1.119245 1.05073,-1.050723 0.4416,-9.873337 -0.8139704,-11.789577 -1.350735,-2.061488 -2.237123,-11.818377 -1.478048,-16.269616 0.423665,-2.484383 1.186738,-4.881868 1.793598,-5.635295 0.2126404,-0.264 0.4768404,-1.128 0.5871004,-1.92 0.22742,-1.633511 -0.27039,-6.602374 -0.7168404,-7.155158 -0.16207,-0.200663 -0.767566,-1.804842 -1.34556,-3.564842 -1.334626,-4.063961 -1.451221,-7.570204 -0.351156,-10.559999 0.388544,-1.056 1.225316,-3.864 1.859486,-6.24 1.0771104,-4.035489 1.1415704,-4.541364 0.9788704,-7.68117 -0.12336,-2.380383 -0.37836,-3.874394 -0.8738904,-5.119999 -1.289131,-3.240454 -1.526943,-4.384852 -1.35537,-6.5222979 0.146903,-1.8301027 0.293167,-2.1953927 1.25062,-3.1233949 0.9791604,-0.9490374 1.2722004,-1.0519862 3.0230404,-1.062023 1.78221,-0.010218 1.99489,0.065091 2.6337,0.9325603 0.3822,0.5190208 1.05491,1.7430209 1.49491,2.7199999 0.77582,1.7226236 0.79987,1.9891566 0.79548,8.8163246 -0.005,7.612197 -0.18089,8.943234 -2.13681,16.16 -0.94331,3.480559 -0.97834,3.812111 -0.64622,6.117686 0.19314,1.340729 0.93111,4.220729 1.63993,6.4 1.98684,6.108457 1.99367,9.728278 0.0335,17.722312 -1.40432,5.727082 -1.46297,6.635331 -0.66367,10.278506 0.38149,1.738822 0.89471,3.665494 1.14049,4.281494 0.74226,1.860349 1.1226,4.437075 1.25526,8.504169 0.14274,4.375962 -0.16484,6.239818 -1.73862,10.535838 -0.91572,2.499655 -1.05545,3.281475 -1.05807,5.920005 -0.002,2.51646 0.14744,3.45331 0.87059,5.44 0.48048,1.32 1.0577,3.192 1.28273,4.16 l 0.40913,1.76 0.1944,-1.12 c 0.17199,-0.99086 0.33654,-6.84306 0.7042,-25.044848 0.0577,-2.85734 0.26729,-7.571164 0.46571,-10.475164 0.35506,-5.196365 0.64247,-12.779596 0.79438,-20.959999 0.14069,-7.575571 0.23331,-9.584234 0.51643,-11.2 0.1542,-0.88 0.36457,-5.056 0.4675,-9.28 0.10292,-4.223999 0.32727,-9.839999 0.49855,-12.479999 0.17128,-2.64 0.375,-7.51934 0.4527,-10.842978 0.13196,-5.6441806 0.0997,-6.0957856 -0.48814,-6.8431546 -0.34618,-0.4400968 -0.62941,-1.0029253 -0.62941,-1.2507304 0,-0.5098528 -2.80696,-3.6231359 -3.26665,-3.6231359 -0.16449,0 -0.51507,-0.216 -0.77907,-0.48 -0.46301,-0.4630131 -1.92194,-0.611703 -4.75429,-0.4845459 -1.83748,0.082493 -5.0456454,1.7090211 -6.3296834,3.2091308 -1.82005,2.1263183 -1.990314,3.4946714 -1.990314,15.995414 0,10.396934 0.326927,24.563356 0.65725,28.479999 0.08164,0.968 0.284972,7.884019 0.45185,15.368927 0.166877,7.484912 0.447742,15.476912 0.624143,17.76 0.176401,2.283091 0.398561,7.751071 0.493689,12.151071 0.09513,4.400008 0.255367,10.088013 0.356087,12.640013 0.10072,2.552 0.261732,7.52 0.357804,11.04 0.24862,9.10921 0.544401,17.68158 0.850178,24.63999 0.100543,2.288 0.290141,7.688 0.421329,12 0.210248,6.91064 0.279762,7.63137 0.586414,6.08 0.191339,-0.968 0.684583,-2.84 1.096103,-4.16 z m 7.6571804,-19.52 c -0.007,-2.552 0.0738,-6.08 0.18023,-7.84 l 0.19354,-3.19999 -0.63675,2.24 c -0.35021,1.23199 -0.85734,2.88888 -1.12697,3.68196 -1.19417,3.51254 -1.19855,7.6346 -0.0128,11.99803 0.23915,0.88 0.54697,2.032 0.68404,2.56 0.35908,1.38317 0.73552,-3.56151 0.71867,-9.44 z"
       id="path119" />
    <path
       style="fill:#ffffff;fill-opacity:1;stroke:#000000;stroke-width:0;stroke-miterlimit:4;stroke-dasharray:none;stroke-opacity:1"
       d="m 13.404555,186.71527 c -0.06147,-0.47932 -0.112542,-1.62018 -0.113493,-2.53524 -0.0023,-2.25167 -0.287174,-7.41131 -0.489849,-8.87332 -0.09061,-0.65362 -0.418618,-2.15099 -0.728909,-3.3275 -0.819965,-3.109 -0.95005,-3.69934 -1.226536,-5.56616 -0.37189,-2.511 -0.332162,-3.84611 0.143204,-4.81246 0.21435,-0.43575 0.391956,-0.88296 0.394682,-0.99381 0.0027,-0.11085 0.225777,-0.68127 0.495671,-1.26762 1.126376,-2.44703 1.410316,-4.10137 1.410578,-8.21853 1.59e-4,-2.51588 -0.191301,-3.58926 -1.418896,-7.95468 -1.601512,-5.69512 -1.611385,-7.11772 -0.09237,-13.31015 0.896367,-3.65414 1.510733,-6.90678 1.512376,-8.00697 5.39e-4,-0.35946 0.114561,-0.86747 0.253388,-1.12892 0.345288,-0.65026 0.309138,-1.33122 -0.233444,-4.39748 -0.378695,-2.14009 -0.588627,-2.90508 -1.106958,-4.03374 -0.685238,-1.49211 -1.089476,-2.83214 -1.615146,-5.35412 -0.5912864,-2.83678 -0.391178,-6.22749 0.565305,-9.578782 0.830178,-2.908743 1.231143,-5.928988 1.433025,-10.794176 l 0.108979,-2.626308 -1.531437,-4.617219 C 9.3828576,73.945827 9.2636816,73.209554 9.5178666,69.143711 c 0.08445,-1.350806 0.182203,-2.937871 0.217231,-3.526813 0.04843,-0.814298 0.2874464,-1.668313 0.9977934,-3.565175 1.213527,-3.240522 1.44798,-4.319726 1.44798,-6.665164 0,-1.97238 -0.471824,-5.3487 -0.886826,-6.346019 -0.122287,-0.293876 -0.22234,-0.561265 -0.22234,-0.594196 0,-0.03293 1.02796,-0.05988 2.284356,-0.05988 h 2.284355 l 0.323743,1.386457 c 0.66445,2.84557 0.764927,4.999086 0.385799,8.268851 -0.07905,0.68179 -0.126541,0.789076 -0.227939,0.51497 -0.07044,-0.190432 -0.245648,-0.34624 -0.389339,-0.34624 -0.206725,0 -0.237705,0.09095 -0.148423,0.435744 0.39662,1.531689 0.324875,2.153738 -0.790409,6.853058 -1.448676,6.104081 -1.396295,6.897825 1.023831,15.514397 0.578466,2.059561 0.641402,2.460833 0.641402,4.089497 0,1.009128 0.06196,1.767566 0.140438,1.719064 0.25447,-0.15727 0.330805,0.591155 0.314008,3.078686 -0.01721,2.548862 -0.108225,3.382432 -0.370986,3.397738 -0.08482,0.0049 -0.133942,0.16372 -0.109159,0.35284 0.02478,0.189119 -0.09873,0.625711 -0.274478,0.970202 -0.390489,0.765421 -1.339028,3.931274 -1.776422,5.929012 -0.242247,1.10642 -0.321828,2.04219 -0.320562,3.76937 0.0021,2.83663 0.343157,4.72526 1.33143,7.37249 0.85155,2.28099 1.053627,3.16878 1.171146,5.14523 0.112861,1.89811 -0.179073,7.14636 -0.484765,8.71488 -0.127385,0.65361 -0.557706,2.36087 -0.95627,3.79391 -1.853374,6.66381 -1.934111,9.19418 -0.485638,15.22035 0.753596,3.13524 1.025617,5.00816 1.027697,7.07591 0.0012,1.21081 -0.01853,1.28721 -0.312781,1.21026 -0.233624,-0.0611 -0.355394,0.0265 -0.475356,0.34205 -0.218721,0.57528 -0.203325,0.72047 0.0764,0.72047 0.322924,0 0.301869,0.28793 -0.160662,2.19709 -0.460748,1.9018 -0.505218,2.0006 -0.792936,1.76182 -0.17033,-0.14136 -0.230213,-0.041 -0.302621,0.50727 -0.04965,0.37593 -0.275501,1.96698 -0.501893,3.53565 -0.461647,3.19876 -0.458534,5.40113 0.01064,7.52648 0.144286,0.65362 0.326554,1.65187 0.405041,2.21833 0.07849,0.56647 0.207659,1.42211 0.287049,1.90143 0.153788,0.92848 -0.06278,11.61489 -0.266531,13.15154 l -0.115552,0.87148 -0.111765,-0.87148 z"
       id="path946" />
    <path
       style="fill:#ffffff;fill-opacity:1;stroke:#000000;stroke-width:0;stroke-miterlimit:4;stroke-dasharray:none;stroke-opacity:1"
       d="m 8.5359266,160.13491 c -0.0013,-1.39208 -0.579159,-17.41507 -1.030088,-28.56102 -0.0476,-1.17651 -0.191751,-5.73993 -0.320341,-10.14094 -0.12859,-4.40101 -0.338844,-11.2818 -0.467232,-15.29064 -0.128389,-4.00884 -0.308144,-9.962688 -0.399457,-13.230765 -0.09131,-3.268077 -0.269639,-7.79585 -0.396281,-10.061717 C 5.6382486,77.763512 5.4376086,71.854112 5.1316836,59.557351 5.0015966,54.328427 4.8536826,49.675874 4.8029866,49.218343 l -0.09217,-0.831874 h 2.204541 2.20454 l 0.4159,1.069552 c 0.451798,1.161872 0.6649684,2.414448 0.8292124,4.872406 0.133362,1.995804 -0.05326,3.014881 -0.8608594,4.700865 -1.390631,2.903146 -1.836258,5.722105 -1.711627,10.827454 0.126957,5.200573 0.65971,8.60896 1.684742,10.778445 0.8492304,1.797398 1.3446444,5.231097 1.2521594,8.678677 -0.0447,1.666411 -0.116588,2.205283 -0.353101,2.646964 -0.163333,0.30502 -0.3885994,1.12501 -0.5005904,1.8222 -0.111992,0.69719 -0.385206,2.308432 -0.607143,3.580537 -0.504617,2.892381 -0.79502,6.861531 -0.653889,8.937191 0.11177,1.64384 0.588523,3.68751 1.8933674,8.11621 1.0077,3.42017 1.259123,4.77872 1.135074,6.13331 -0.230198,2.51369 -0.929793,6.34114 -1.514116,8.28365 -1.1169934,3.71329 -1.5302044,6.62671 -1.3886764,9.79109 0.06989,1.56262 0.254442,2.63549 1.035756,6.02118 1.5667534,6.78927 1.7064824,7.98767 1.0767804,9.23511 -0.463281,0.91776 -1.2112824,3.24024 -1.7073174,5.30108 -0.388482,1.61399 -0.608721,1.9581 -0.609638,0.95252 z"
       id="path948" />
    <path
       style="fill:#ffffff;fill-opacity:1;stroke:#000000;stroke-width:0;stroke-miterlimit:4;stroke-dasharray:none;stroke-opacity:1"
       d="M 13.686184,1.4356888 C 10.188425,1.5333568 6.2350266,3.3160321 4.9284746,6.7603405 3.9763506,11.30868 4.4212276,16.019003 4.2750386,20.637434 c -0.163555,17.47823 0.889721,34.932747 1.280968,52.400973 0.499495,12.078748 0.988548,24.157483 1.284196,36.243583 0.498598,17.09751 1.149569,34.22022 1.78174,51.29452 0.826636,-2.60884 1.6424004,-5.24029 2.5542234,-7.8176 -0.219831,-5.57893 -2.8843834,-10.88831 -2.4016204,-16.54491 0.08486,-4.87728 2.3296424,-9.36962 2.6552664,-14.2208 0.694371,-3.99662 -1.21358,-7.78876 -2.1408884,-11.5867 -1.086069,-2.8253 -0.518765,-5.90826 -0.566755,-8.86858 0.20425,-3.84887 1.175629,-7.600353 2.0045134,-11.338197 0.07222,-3.793804 -0.293762,-7.671986 -1.8754014,-11.162248 -1.169836,-5.286121 -1.634452,-10.858974 -0.612733,-16.209858 0.417207,-2.819053 2.4803114,-5.234643 2.0710384,-8.185678 0.246982,-4.82148 -3.0593194,-8.911711 -2.9875124,-13.708593 -0.264984,-2.74398 0.340634,-5.422203 1.299995,-7.975886 1.5884994,-5.145742 3.1367144,-10.723008 1.34745,-16.038878 -1.003571,-2.903258 -2.11904,-6.088416 -1.035519,-9.1419798 0.98967,-2.2930029 4.0863584,-2.8123734 6.1303964,-1.7712367 1.368323,1.3416457 2.057297,3.3028088 2.757922,5.0204725 -0.177964,5.79485 0.418309,11.660347 -0.576723,17.400784 -0.791373,4.530543 -3.149603,9.095106 -1.705456,13.748822 1.160919,4.756952 3.16809,9.459313 2.626,14.45963 -0.207341,6.225921 -3.626297,12.256684 -1.910138,18.526626 0.96689,3.695944 2.271075,7.352967 2.227884,11.230323 0.433404,4.121135 -0.331689,8.239966 -1.783068,12.0948 -1.116056,2.950527 -1.092687,6.241877 -0.55451,9.307977 0.687341,2.14452 1.337933,4.42096 1.980442,6.50941 0.61057,-4.4762 0.411255,-9.0709 0.619532,-13.59481 0.265057,-15.487698 1.287894,-30.948702 1.616506,-46.434663 0.371997,-8.198129 0.967004,-16.384899 1.16682,-24.591609 C 21.905299,22.572775 22.13228,15.456124 22.247817,8.3368155 21.151156,6.156183 19.894699,3.8211722 17.872027,2.3985553 16.660647,1.4992277 15.173994,1.3662587 13.686184,1.4356888 Z"
       id="path1030" />
    <path
       style="fill:#ffffff;fill-opacity:1;stroke:#000000;stroke-width:0;stroke-miterlimit:4;stroke-dasharray:none;stroke-opacity:1"
       d="M 13.681369,1.4098664 C 9.6968136,1.5513603 5.0268036,3.9404628 4.5872466,8.3181203 4.0908736,15.140398 4.3457156,22.004555 4.2972076,28.843662 c 0.07668,14.463431 0.920727,28.908652 1.224387,43.367715 0.490118,12.41344 1.023087,24.824888 1.331326,37.244923 0.558063,17.02851 1.036112,34.07035 1.806224,51.0852 0.762504,-2.59007 1.6039444,-5.16431 2.5165834,-7.69637 -0.19343,-5.38534 -2.6384384,-10.50117 -2.4110394,-15.94855 -0.02608,-5.26677 2.4060234,-10.12707 2.7152174,-15.35861 0.527731,-3.76825 -1.258701,-7.33192 -2.1274354,-10.91633 -1.155921,-2.88961 -0.585997,-6.0464 -0.61761,-9.08241 C 8.9234426,97.602278 10.028348,93.789803 10.737186,89.94544 10.813336,86.190026 10.335729,82.40819 8.8784156,78.924995 7.4889136,72.741453 6.9774236,66.053982 9.0954986,59.97053 10.13363,58.005468 10.537163,55.815323 10.259254,53.607297 10.129945,49.010449 7.0564656,45.039357 7.3176966,40.381012 6.9219706,36.231248 9.0894176,32.506699 9.8732076,28.538066 11.301996,23.827282 10.917075,18.725046 9.0907006,14.179796 8.4081756,11.9978 8.1218346,9.3921441 9.2036016,7.3052352 10.454226,5.3897582 13.311098,5.0216551 15.191319,6.1073418 c 1.20191,1.3949704 1.952648,3.2135043 2.631027,4.8782312 -0.168573,5.732517 0.394275,11.527788 -0.530228,17.212551 -0.779521,4.620256 -3.204788,9.260473 -1.755042,14.004018 1.187961,4.797045 3.167826,9.557193 2.609368,14.601433 -0.222264,4.948966 -2.272758,9.629026 -2.428612,14.570357 0.321865,5.004791 2.718335,9.639784 2.733093,14.696359 0.53613,4.423148 -0.374194,8.838748 -1.935138,12.967777 -1.097703,2.455402 -0.61861,5.197212 -0.579122,7.806552 0.49427,2.53233 1.506347,5.01234 2.184394,7.4539 0.606881,-3.87853 0.390687,-7.90393 0.59085,-11.84107 C 18.956477,86.444341 20.000935,70.458981 20.3641,54.449366 20.749741,46.129875 21.327017,37.820093 21.540435,29.492069 21.9136,22.445431 22.130663,15.392239 22.247817,8.3368155 20.687113,4.8836696 18.053498,0.89278918 13.681369,1.4098664 Z"
       id="path1032" />
    <path
       style="fill:#ffffff;fill-opacity:1;stroke:#000000;stroke-width:0;stroke-miterlimit:4;stroke-dasharray:none;stroke-opacity:1"
       d="M 13.732576,1.4107418 C 10.096971,1.4799298 6.0234856,3.4411206 4.8264986,7.0702083 3.9524976,12.026184 4.4040166,17.108745 4.2961886,22.11849 c 0.02443,11.818199 0.26979,23.633479 0.784681,35.440248 0.414082,17.373109 1.350795,34.727472 1.771833,52.100312 0.47021,16.9636 1.164201,33.9271 1.746482,50.88201 0.840821,-2.14527 1.4318774,-4.70129 2.3511454,-6.94095 0.68925,-2.35145 -0.462223,-4.77344 -0.774714,-7.10778 -1.3748434,-5.15055 -2.0512754,-10.64622 -0.5352764,-15.85026 1.0466814,-3.88952 2.0818914,-7.90953 1.8881474,-11.96294 -1.03457,-5.43385 -3.6384284,-10.71028 -2.8395914,-16.3706 0.295823,-4.106947 1.132813,-8.149475 2.0351604,-12.149073 C 10.874594,86.283665 10.330506,82.376993 8.8403386,78.783192 7.5214586,72.68013 6.9838306,66.102651 9.0591716,60.10008 9.9297906,58.292443 10.533873,56.365663 10.289773,54.333485 10.264203,48.585113 6.2062046,43.437874 7.3977896,37.587385 8.6351306,32.011897 11.288593,26.581158 10.675475,20.725405 10.522338,16.490499 7.6001496,12.586934 8.8005106,8.2746668 9.4119576,6.236843 11.594758,5.1372795 13.628093,5.6030563 c 2.075608,-0.097907 2.608592,2.2058602 3.442488,3.642741 1.344186,1.9666677 0.532347,4.4387717 0.751352,6.6692147 0.02714,5.433358 0.172312,10.963328 -1.46969,16.214292 -0.781164,3.196834 -1.936983,6.535266 -0.859372,9.815052 1.150506,4.88588 3.209935,9.70694 2.647883,14.832522 -0.2359,5.016716 -2.311833,9.774405 -2.425111,14.790066 0.311992,4.778052 2.627407,9.161843 2.701234,13.973705 0.470745,4.27213 -0.07669,8.600687 -1.611852,12.616457 -1.211145,2.994904 -1.211988,6.340044 -0.721304,9.484074 0.627028,2.18238 1.30282,4.58524 2.08942,6.58513 0.672268,-7.93895 0.530787,-15.937354 0.843878,-23.900687 0.337049,-10.91642 1.073948,-21.817132 1.249273,-32.739806 C 20.576905,48.193909 21.310911,38.82234 21.548954,29.426654 21.926291,22.402008 22.131905,15.370178 22.258321,8.3368155 20.810283,5.3035376 18.641359,1.5666033 14.858255,1.4387524 14.483828,1.4097836 14.107964,1.4015492 13.732576,1.4107418 Z"
       id="path1034" />
    <path
       style="fill:#ffffff;fill-opacity:1;stroke:#000000;stroke-width:0;stroke-miterlimit:4;stroke-dasharray:none;stroke-opacity:1"
       d="M 13.76759,1.4138055 C 10.042484,1.4433865 5.8334086,3.5189519 4.7665386,7.3047976 3.9530806,12.792621 4.4006916,18.381133 4.3081376,23.911137 c 0.01853,11.656547 0.330818,23.30769 0.80469,34.953584 0.432185,17.298324 1.328617,34.579986 1.761048,51.878539 0.512514,16.25029 1.023003,32.50366 1.740947,48.74515 0.02715,1.86054 0.55581,-0.58294 0.79405,-1.09601 1.1273294,-2.99567 2.2129354,-6.22455 1.2915494,-9.43637 -0.8509334,-4.11007 -2.1433664,-8.19436 -1.8236224,-12.44636 -0.223322,-4.74838 2.1105214,-9.08307 2.4643664,-13.76593 0.650759,-2.87336 -0.05804,-5.73326 -0.883211,-8.48461 -1.1060464,-3.80795 -2.2924474,-7.71179 -1.7482994,-11.72589 0.22193,-4.111054 1.049901,-8.152498 1.9863904,-12.145319 C 10.90432,86.473561 10.367628,82.510716 8.8980856,78.8676 7.3247546,72.019058 6.9269656,64.5236 9.9117466,57.983523 11.153613,53.566163 9.3889266,49.065991 8.0330706,44.894766 6.7672646,41.214374 7.1211716,37.215924 8.4685736,33.614788 10.026041,28.671424 11.52532,23.412019 10.310023,18.217576 9.6730976,15.484756 8.2718136,12.880014 8.6500576,9.9851121 8.2995346,7.6614262 10.255815,5.3564515 12.647601,5.5825796 c 1.679942,-0.3605465 3.168727,0.722141 3.723126,2.2753936 0.809745,1.5589919 1.800899,3.0858758 1.447302,4.9202778 -0.09938,6.59157 0.453254,13.336525 -1.556723,19.724621 -0.961873,3.28438 -1.757107,6.796464 -0.628819,10.155756 1.077432,4.48558 3.028079,8.914357 2.457571,13.62697 -0.0187,5.030553 -2.145923,9.757137 -2.357783,14.749582 0.153072,5.13654 2.686142,9.868981 2.711131,15.033661 0.573415,4.737235 -0.55774,9.438483 -2.226196,13.84315 -0.580138,2.506189 -0.519076,5.180849 -0.144431,7.713429 0.624651,2.21005 1.299381,4.5241 2.084607,6.61971 0.645499,-6.8201 0.516873,-13.7115 0.774778,-20.561703 0.312663,-12.51729 1.162693,-25.013946 1.393817,-37.534407 0.434585,-10.311755 1.083131,-20.614193 1.41808,-30.931221 0.219483,-5.722581 0.638356,-11.513417 0.347381,-17.2045434 -1.419409,-3.0235457 -3.727119,-6.6072689 -7.478718,-6.5858825 -0.281453,-0.01491 -0.563361,-0.01822 -0.845134,-0.013568 z"
       id="path1036" />
    <path
       style="fill:#ffffff;fill-opacity:1;stroke:#000000;stroke-width:0;stroke-miterlimit:4;stroke-dasharray:none;stroke-opacity:1"
       d="M 13.676555,1.4054898 C 10.244342,1.55333 6.3978896,3.2252848 4.9963136,6.5441331 3.9165166,11.189256 4.4162226,16.030679 4.2877276,20.76129 c 0.02235,12.854862 0.291635,25.706598 0.820391,38.550299 0.363808,15.804906 1.254158,31.590321 1.634022,47.395001 0.588613,17.75145 1.036935,35.51325 1.920943,53.25106 0.23298,0.86223 0.64162,-1.68409 0.906106,-1.98887 1.1446474,-2.93442 2.0034384,-6.14025 1.1001584,-9.26879 C 9.3848606,143.03371 7.8519966,137.09104 9.4806446,131.32113 10.984172,125.83961 12.603196,119.87268 10.519619,114.31068 9.2157036,110.21228 8.1391566,105.92383 8.7838796,101.59481 9.0812766,97.724001 9.9368636,93.930136 10.7083,90.143265 11.154713,85.73161 9.7169846,81.48411 8.5619846,77.300453 7.6434216,72.420424 7.4038576,67.308046 8.3892076,62.420954 8.9915436,59.723978 10.710047,57.260476 10.301708,54.387656 10.319048,48.494786 5.9674946,43.12668 7.5754826,37.14797 8.8449246,31.328271 11.632853,25.577595 10.548552,19.485934 10.02115,15.57197 7.4550816,11.627741 9.0556706,7.6501166 10.103467,5.5700454 13.353043,4.8416577 15.196571,6.2246366 c 1.215066,1.433414 2.206283,3.2279905 2.625139,5.0252864 -0.123538,7.115298 0.523792,14.394404 -1.602408,21.302313 -0.840828,2.987924 -1.642745,6.133098 -0.765259,9.215602 1.044484,4.69661 3.00496,9.277355 2.674802,14.184446 -0.05656,6.214936 -3.293562,12.144426 -2.061755,18.413976 1.142133,4.561523 2.58183,9.117141 2.490212,13.877506 0.230169,4.302962 -1.289236,8.377993 -2.541419,12.411374 -0.424399,3.33833 -0.337853,6.80555 0.938802,9.96637 0.417173,1.15024 0.714177,2.61736 1.213642,3.6048 0.684435,-7.73743 0.526109,-15.538731 0.863424,-23.301498 0.468158,-12.879585 1.081706,-25.753574 1.429511,-38.637519 0.784098,-12.508822 1.23864,-25.036608 1.692701,-37.560944 -0.01937,-2.292893 0.175445,-4.659984 -0.0697,-6.9066989 C 20.472721,4.5475818 17.821298,0.92354178 13.676555,1.4054898 Z"
       id="path1038" />
    <path
       style="fill:#ffffff;fill-opacity:1;stroke:#000000;stroke-width:0;stroke-miterlimit:4;stroke-dasharray:none;stroke-opacity:1"
       d="m 13.626661,1.3643491 c -3.390283,0.2546715 -7.2442404,1.861994 -8.6369124,5.1719061 -1.068107,4.5676298 -0.575153,9.3303438 -0.702455,13.9830088 0.02583,13.425073 0.312573,26.846829 0.85869,40.260525 0.59144,19.854278 1.49782,39.697611 2.016583,59.554481 0.452748,13.40856 0.898624,26.83612 1.451061,40.22955 0.921362,-2.44843 1.7094354,-5.05263 2.5467824,-7.55194 C 11.038036,147.47903 8.4562876,142.24218 8.8915456,136.65191 8.7339576,131.35687 11.315053,126.47396 11.5298,121.2084 11.91129,117.30693 10.033285,113.65759 9.3219616,109.8912 7.8785286,104.50088 9.0068886,98.850605 10.020726,93.487913 11.636479,88.54957 10.391346,83.273003 8.8755386,78.478635 7.3391706,71.72827 7.0438296,64.32794 9.9625156,57.894241 11.121479,53.556577 9.4527946,49.176893 8.1286926,45.0798 7.1356136,42.033392 6.8809996,38.724762 7.9564956,35.661377 9.2235426,30.493567 11.450598,25.335038 10.627332,19.902155 10.216004,16.394789 8.2070676,13.17864 8.6495166,9.5570291 8.3467386,6.2143076 12.941025,4.3087215 15.320431,6.3997032 c 1.099542,1.2917256 1.865006,2.9252899 2.445879,4.4786418 -0.12574,7.120293 0.595915,14.401127 -1.466447,21.331199 -0.828411,3.17284 -1.833171,6.505257 -0.784804,9.763356 1.233539,5.142336 3.174216,10.293723 2.530721,15.676248 -0.584665,5.723082 -3.210614,11.348909 -1.886343,17.167472 1.200585,4.530986 2.549971,9.10952 2.291991,13.85477 0.262993,3.995723 -1.02765,7.814403 -2.33707,11.52158 -0.445849,2.63302 -0.502028,5.42607 0.111928,8.0374 0.621672,2.00271 1.165647,4.19931 1.978805,6.04539 0.640844,-8.01659 0.520188,-16.090188 0.852818,-24.129096 0.435699,-12.123238 1.079696,-24.238122 1.357458,-36.367192 0.493317,-9.05121 0.972695,-18.103272 1.287916,-27.163605 0.274422,-6.19616 0.551669,-12.395913 0.488951,-18.5998612 -1.69143,-3.3026399 -4.302207,-7.17894842 -8.565573,-6.6516567 z"
       id="path1040" />
    <path
       style="fill:#ffffff;fill-opacity:1;stroke:#000000;stroke-width:0;stroke-miterlimit:4;stroke-dasharray:none;stroke-opacity:1"
       d="m 17.614241,127.96029 c -1.444091,4.08568 -2.743399,8.45587 -1.881091,12.8245 0.372074,1.67299 0.482119,3.60913 1.358517,5.06162 0.38852,-5.93614 0.558758,-11.94473 0.531765,-17.89269 z"
       id="path1042" />
    <path
       style="fill:#ffffff;fill-opacity:1;stroke:#000000;stroke-width:0;stroke-miterlimit:4;stroke-dasharray:none;stroke-opacity:1"
       d="M 13.632788,1.3459671 C 10.235903,1.6006442 6.3841296,3.2296122 4.9884356,6.5397565 3.9189166,11.131541 4.4149816,15.918328 4.2872936,20.594981 c 0.02982,13.649971 0.317623,27.296711 0.873698,40.935171 0.695695,21.416338 1.548602,42.827238 2.17918,64.245868 0.412271,11.59413 0.762247,23.25933 1.274769,34.80793 0.91553,-2.99374 2.4996614,-5.92303 2.4876974,-9.1144 -0.767152,-6.12179 -3.2985654,-12.21922 -1.9014394,-18.45936 0.8538724,-4.69062 2.6003144,-9.33171 2.3772984,-14.14891 C 10.515418,113.32079 8.0797006,107.91866 8.7559506,102.15862 8.9676776,98.039417 10.049922,94.043653 10.702173,89.996209 11.162518,85.543334 9.6451256,81.279665 8.5663286,77.038954 7.6226956,71.488375 7.2937696,65.586275 9.0989996,60.170981 10.121184,58.044663 10.552864,55.715047 10.269782,53.36398 9.8167386,47.8036 6.0388946,42.552808 7.6402566,36.852105 9.0507166,31.243405 11.432182,25.631767 10.598446,19.72665 10.139594,16.237146 8.1929866,13.003443 8.6753386,9.3907161 8.4713376,5.6648962 14.27983,4.061485 16.025837,7.3210093 c 1.03157,1.7130216 2.03888,3.5300637 1.694296,5.5959857 -0.02847,6.629562 0.381063,13.392128 -1.55776,19.827582 -0.921977,3.255579 -1.613497,6.731424 -0.504501,10.041412 1.263756,4.861293 3.079169,9.77889 2.330722,14.888211 -0.296713,5.151423 -2.773207,10.09288 -2.104887,15.298093 1.128462,6.225069 3.471407,12.43693 2.445072,18.858238 -0.291399,3.452782 -2.021508,6.574552 -2.458202,9.979609 -0.197979,2.94686 -0.07645,5.93454 1.035082,8.70957 0.426895,1.22922 0.737404,2.66257 1.297244,3.75824 0.632384,-7.2867 0.507417,-14.636429 0.799592,-21.948717 0.419532,-12.954069 1.117272,-25.897343 1.443856,-38.854895 0.709824,-12.459391 1.226979,-24.92978 1.681834,-37.40127 0.0045,-2.740956 0.204793,-5.557995 -0.04389,-8.2534351 C 20.42516,4.5842299 17.785564,0.83478238 13.632793,1.3459671 Z"
       id="path1044" />
    <path
       style="fill:#ffffff;fill-opacity:1;stroke:#000000;stroke-width:0;stroke-miterlimit:4;stroke-dasharray:none;stroke-opacity:1"
       d="m 16.924041,155.49039 c -1.351173,4.86644 -2.754493,9.99452 -1.639499,15.06448 0.918095,7.26439 -0.07021,14.59293 -0.37508,21.86801 -0.386148,6.23626 -0.797998,12.47114 -1.120427,18.71113 -0.774406,0.2144 -1.926944,0.23365 -1.867961,-0.88715 -0.549817,-6.97144 -0.261463,-13.987 -0.47803,-20.97579 -0.112371,-6.69935 -0.156549,-13.49048 -1.9930354,-19.99024 -0.221319,-0.56632 -0.138032,-1.46137 -0.369829,-1.90867 0.07924,13.40518 0.607773,26.81103 1.1173404,40.20794 0.841802,14.81782 1.079662,29.66839 2.043926,44.47748 0.193925,0.69155 1.241358,1.08601 0.445982,1.85483 0.409009,0.79205 1.442991,-0.0328 1.246037,-0.76548 0.501569,-10.43802 0.770907,-20.88892 1.130744,-31.33348 0.432636,-21.41271 1.043557,-42.82317 1.963559,-64.22007 -0.03633,-0.68217 0.09647,-1.4647 -0.103727,-2.10299 z"
       id="path1046" />
    <path
       style="fill:#d46348;fill-opacity:1;stroke:#000000;stroke-width:0;stroke-miterlimit:4;stroke-dasharray:none;stroke-opacity:1"
       d="M 12.898821,7.5652093 C 10.972285,7.725735 9.7928456,9.8945421 10.504785,11.65958 c 0.532659,2.784044 1.86436,5.434841 1.485912,8.329664 -0.09973,3.122444 0.172747,6.303847 -0.15647,9.389937 -0.656136,2.167992 -1.608063,4.355914 -1.620928,6.622976 -1.4131484,0.572762 -1.1503494,2.579441 -1.5982694,3.796141 -0.201552,1.096328 0.547386,2.062452 0.494474,3.176326 0.245686,1.61812 1.8520194,2.822099 1.8268204,4.444943 -0.71759,0.07373 -0.9748634,-1.328116 -1.4924434,-1.370773 0.291082,0.88325 0.442605,2.272886 1.5103884,2.461875 1.33084,2.533939 1.226302,5.60507 1.197455,8.404073 -0.33771,3.739757 -2.6819664,7.04363 -2.5516114,10.878832 -0.0149,2.349146 -0.231299,4.762012 0.09022,7.073532 0.9911034,3.148647 2.2091044,6.267159 3.0605784,9.43424 -0.235569,4.856871 -0.478333,9.759066 -1.912188,14.440755 -1.2032204,4.959599 -0.185749,10.159449 1.84739,14.752429 0.491056,2.27556 1.294627,4.62765 1.015825,6.96634 -0.772518,2.82032 -0.860219,5.79256 -1.725706,8.60466 -0.858593,3.25776 -1.552536,6.60878 -1.017151,9.98654 0.714003,4.62468 2.862516,9.0772 2.306941,13.85784 0.08588,3.26231 -1.213211,6.27051 -2.411543,9.22557 -0.802093,5.30481 2.053697,10.29218 2.134763,15.55902 0.246965,3.29996 0.391842,6.60639 0.569141,9.91055 0.262693,-6.55852 0.793209,-13.20188 -0.60398,-19.67749 -0.380288,-3.35337 0.229412,-6.76031 0.930479,-10.02563 0.546572,-0.0367 0.63583,-0.43602 0.706619,-1.10975 0.130052,-1.05591 0.926384,-2.30971 0.230863,-3.2551 -0.122316,-0.84516 1.169759,-0.42612 0.867893,-1.35983 0.144356,-4.90224 -2.28966,-9.47516 -1.888547,-14.39004 -0.438601,-5.4361 2.594545,-10.36798 2.576761,-15.77007 -0.02004,-2.54597 0.267252,-5.15813 -0.04784,-7.66304 -1.740587,-4.54285 -3.229839,-9.56128 -1.786795,-14.404579 0.467077,-2.299623 1.332384,-4.618733 1.990679,-6.790734 0.508152,-1.301615 0.186776,-2.995117 0.263913,-4.436187 0.02454,-1.55275 -0.622137,-2.922231 -0.442044,-4.507529 -0.469188,-5.122893 -3.413408,-10.014217 -2.289585,-15.274461 0.450531,-3.551922 2.144351,-7.073393 1.473775,-10.674354 0.550249,0.220312 0.926106,-0.09995 0.837256,-0.743156 0.606529,-4.418785 -0.368564,-8.921107 -2.454687,-12.835525 -0.673352,-1.721385 -0.952368,-3.651304 -1.026513,-5.459814 1.069035,-0.179391 0.201927,-1.698987 0.368078,-2.422485 -0.08748,-0.861619 0.958246,-1.374839 0.574656,-2.30519 -0.167188,-0.557798 -0.03791,-0.88595 0.428476,-1.001381 C 15.963957,29.171 16.087554,24.393014 16.388176,19.799889 16.54035,15.794976 16.598802,11.341399 14.11203,7.9718015 13.784862,7.6766627 13.335817,7.5373137 12.898821,7.5652093 Z"
       id="path1050" />
    <path
       style="fill:#d46348;fill-opacity:1;stroke:#000000;stroke-width:0;stroke-miterlimit:4;stroke-dasharray:none;stroke-opacity:1"
       d="m 12.781409,7.4070035 c -2.427347,0.3982929 -3.8019874,3.1814015 -2.9418884,5.4337975 1.2139974,3.864831 1.4650934,7.886521 1.3123664,11.899388 0.191682,3.172147 -0.327508,6.319471 -1.3210324,9.342495 -0.235365,1.082578 -0.120762,2.194851 -1.010752,2.972836 -1.73739,3.322477 -0.606999,7.231991 1.130829,10.29011 -1.609718,1.143229 0.6138054,2.308268 0.7972134,3.558986 0.987037,4.274806 0.689827,8.684456 -1.0324154,12.764071 -1.3994,3.932414 -0.763579,8.202058 -0.843634,12.276952 1.4126094,4.270766 3.5731764,8.613089 2.8198334,13.16688 -0.128952,4.73305 -1.678382,9.223212 -2.0931814,13.922881 -0.406551,5.29 2.2327474,10.08458 3.1609984,15.15324 0.502372,7.40818 -3.6566994,14.35132 -2.47334,21.79646 0.731041,4.52873 2.348265,8.9043 2.098873,13.57366 0.311169,3.6443 -1.880224,6.78267 -2.4392984,10.29197 0.01764,5.70273 2.3184974,11.17904 2.4151584,16.82069 0.24848,1.21719 -0.46493,3.76093 1.515819,3.5528 1.364475,-1.18859 0.479532,-3.3647 0.793339,-4.96706 0.408664,-7.11841 -2.461558,-14.4858 0.609829,-21.26173 0.661678,-1.57213 0.284753,-3.37898 1.221816,-4.79876 0.214943,-5.20762 -2.22685,-10.39261 -1.793405,-15.48356 0.140117,-5.51979 2.769377,-10.60543 2.473993,-16.18912 0.250463,-3.50272 0.137677,-7.12531 -1.220935,-10.37472 -1.753084,-4.9558 -1.048289,-10.34756 0.804555,-15.162352 1.876373,-6.081549 0.215746,-12.550592 -1.161691,-18.565075 -1.179376,-3.828617 -0.907648,-7.888243 0.196701,-11.6997 0.470758,-2.069231 0.616083,-4.222293 0.770724,-6.306909 1.261183,-1.897447 0.558765,-4.46294 0.557058,-6.624666 -0.177858,-4.49767 -3.565809,-8.371107 -3.169044,-12.903332 0.395055,-2.294196 0.488871,-4.667358 1.591949,-6.783119 C 17.303429,26.533813 17.639624,19.551453 16.756951,12.8179 16.262027,10.774997 15.395565,7.4190765 12.781409,7.4070035 Z"
       id="path1058" />
    <path
       style="fill:#d46348;fill-opacity:1;stroke:#000000;stroke-width:0;stroke-miterlimit:4;stroke-dasharray:none;stroke-opacity:1"
       d="m 13.2081,183.14778 c -0.415534,0.10844 -0.337262,0.59777 -0.355936,0.92456 -0.0032,1.35517 -0.02244,2.73927 0.348973,4.05454 0.05851,0.32796 0.476605,0.54422 0.738799,0.29508 0.270152,-0.31095 0.15607,-0.76745 0.195221,-1.14498 -0.0099,-1.23003 0.05984,-2.45805 0.0529,-3.68974 8.15e-4,-0.30511 -0.370522,-0.51503 -0.627232,-0.34932 -0.09624,-0.0846 -0.228553,-0.10991 -0.352727,-0.0901 z"
       id="path1076" />
    <path
       style="fill:#d46348;fill-opacity:1;stroke:#000000;stroke-width:0;stroke-miterlimit:4;stroke-dasharray:none;stroke-opacity:1"
       d="m 8.8851706,44.722348 c -0.329455,0.150227 -0.260962,0.545844 -0.160397,0.82021 0.175531,0.533491 0.294224,1.100536 0.573762,1.59074 0.227007,0.306115 0.7576084,0.09756 0.7258974,-0.278266 -0.0047,-0.321795 -0.1819914,-0.616613 -0.1527274,-0.935472 -0.120042,-0.384284 -0.302021,-0.756671 -0.522088,-1.093073 -0.118792,-0.134597 -0.299815,-0.151901 -0.464447,-0.104139 z m 0.765646,1.667075 c -0.09158,0.04849 0.03656,-0.02285 0,0 z"
       id="path1078" />
  </g>
</svg>
