<?xml version="1.0" encoding="UTF-8" standalone="no"?>
<svg
   xmlns:dc="http://purl.org/dc/elements/1.1/"
   xmlns:cc="http://creativecommons.org/ns#"
   xmlns:rdf="http://www.w3.org/1999/02/22-rdf-syntax-ns#"
   xmlns:svg="http://www.w3.org/2000/svg"
   xmlns="http://www.w3.org/2000/svg"
   xmlns:sodipodi="http://sodipodi.sourceforge.net/DTD/sodipodi-0.dtd"
   xmlns:inkscape="http://www.inkscape.org/namespaces/inkscape"
   inkscape:version="1.0 (4035a4fb49, 2020-05-01)"
   sodipodi:docname="stick.svg"
   id="svg8"
   version="1.1"
   viewBox="0 0 210 297"
   height="297mm"
   width="210mm">
  <defs
     id="defs2" />
  <sodipodi:namedview
     inkscape:lockguides="false"
     inkscape:pagecheckerboard="true"
     inkscape:window-maximized="1"
     inkscape:window-y="-8"
     inkscape:window-x="-8"
     inkscape:window-height="801"
     inkscape:window-width="1536"
     showgrid="false"
     inkscape:document-rotation="0"
     inkscape:current-layer="layer1"
     inkscape:document-units="mm"
     inkscape:cy="423.77985"
     inkscape:cx="400.14528"
     inkscape:zoom="31.678384"
     inkscape:pageshadow="2"
     inkscape:pageopacity="1"
     borderopacity="1.0"
     bordercolor="#666666"
     pagecolor="#1609fd"
     id="base" />
  <metadata
     id="metadata5">
    <rdf:RDF>
      <cc:Work
         rdf:about="">
        <dc:format>image/svg+xml</dc:format>
        <dc:type
           rdf:resource="http://purl.org/dc/dcmitype/StillImage" />
        <dc:title></dc:title>
      </cc:Work>
    </rdf:RDF>
  </metadata>
  <g
     id="layer1"
     inkscape:groupmode="layer"
     inkscape:label="Calque 1">
    <path
       sodipodi:nodetypes="ccc"
       transform="scale(0.26458333)"
       id="path61"
       d="m 404.484,404.72452 c -12.07788,-2.23353 -1.87346,-7.06086 0.11618,0.24607 -0.0632,-0.0927 -0.0769,-0.16284 -0.11618,-0.24607 z"
       style="fill:#ffffff;stroke-width:0.0315673" />
    <path
       sodipodi:nodetypes="scccccscsccccccccsscccccccccsccccccccccccccccccc"
       d="m 105.50122,103.95379 c 2.21026,-0.13478 2.76587,1.52182 2.68572,3.40416 0.0467,3.64819 -0.24854,7.27544 -0.14918,10.9257 0.0357,3.97457 -0.14443,7.94117 -0.0813,11.91675 0.0129,4.95107 -0.13334,8.65738 -0.0847,12.9899 0.0291,2.33265 -0.0751,4.66199 -0.0524,6.98943 -0.0786,6.6873 -0.0396,13.11976 -0.0764,19.79739 -7.9e-4,0.14475 -0.0252,0.28961 -0.0261,0.43459 -0.0262,0.1728 -0.15457,0.53969 -0.24784,0.6095 -1.45392,1.08823 -1.49941,-2.09514 -1.58606,-3.37978 -0.35834,-6.43489 -0.45018,-12.89489 -0.94854,-19.32357 -0.11233,-2.39165 -0.24774,-4.72605 -0.28016,-7.09241 -0.0331,-2.59837 -0.30672,-5.19009 -0.29256,-7.78965 -0.0575,-2.13504 -0.0479,-4.27094 -0.24052,-6.40139 -0.15109,-3.05306 -0.16948,-6.10614 -0.28455,-9.15912 -0.0444,-3.03397 -0.0656,-6.06859 -0.29936,-9.0946 -0.11306,-1.43803 -0.39218,-2.92841 0.3825,-4.1913 0.38719,-0.53452 1.33127,-0.62034 1.09721,-0.60607 z m 0.23038,0.10832 c -2.22721,-0.22949 -2.28774,2.07154 -2.17772,3.66614 0.26896,3.22404 0.47115,6.45084 0.46373,9.68638 0.16017,2.39148 0.10324,4.78824 0.23403,7.17692 0.063,3.16963 0.46057,6.33507 0.36852,9.51188 0.0949,2.74899 0.21339,5.46322 0.24485,8.21739 0.13855,3.81948 0.40148,7.65824 0.64592,11.47455 0.12913,4.35489 0.4249,8.70537 0.53452,13.06168 0.0183,1.28391 -0.0661,2.71729 0.47623,3.90463 0.29181,0.53158 0.8563,0.21371 0.98149,-0.26615 0.1564,-0.59946 0.0686,-1.59007 0.115,-2.07408 -0.0443,-3.56249 -0.12405,-7.12393 -0.0847,-10.68888 -0.0165,-4.1644 0.0879,-8.30586 0.0789,-12.47016 0.15316,-3.51287 -0.0394,-7.08952 0.0907,-10.55698 0.004,-2.59777 0.0293,-5.20694 0.0845,-7.81119 0.097,-3.95926 0.0954,-7.9218 0.0847,-11.88464 0.0571,-2.60464 0.17999,-5.04362 0.17289,-7.67402 0.0635,-1.55713 -0.43505,-3.30244 -2.31356,-3.27347 z m 1.12429,65.81161 c -0.25399,-2.44562 -0.18468,-4.91078 -0.35039,-7.36425 0.006,-3.36241 -0.24805,-6.64845 -0.28214,-10.00747 -0.41119,-11.97462 -0.54214,-23.10326 -1.02743,-34.15874 -0.13228,-3.73074 -0.36617,-7.45374 -0.49401,-11.18104 0.38276,-2.30865 2.82781,-1.14571 2.73458,0.91288 -0.10754,20.5571 -0.28499,37.89152 -0.31973,58.4494 l -0.13167,3.39932 -0.0833,0.005 -0.0459,-0.0548 z"
       style="fill:#333333"
       id="Sélection" />
    <path
       transform="scale(0.26458333)"
       id="path31"
       d="m 403.128,645.62338 c -1.31716,-1.47983 -1.74534,-4.32603 -2.082,-13.83929 -0.27756,-7.84331 -1.11797,-27.89615 -1.9458,-46.42857 -0.11407,-2.55357 -0.5957,-10.99107 -1.07029,-18.75 -0.47459,-7.75893 -1.03169,-18.36607 -1.23799,-23.57143 -1.14984,-29.01154 -1.43685,-37.49854 -1.43723,-42.5 -2.3e-4,-3.04464 -0.23685,-9.95535 -0.52581,-15.35714 -0.4963,-9.27753 -0.81511,-18.66596 -1.61298,-47.5 -0.18752,-6.77679 -0.61233,-15.9375 -0.94402,-20.35714 -0.8371,-11.15404 -0.84191,-16.80736 -0.0163,-19.17411 1.23624,-3.54385 4.19551,-5.19143 8.31127,-4.6273 3.28839,0.45073 5.54074,2.30445 6.81841,5.61165 0.77124,1.99634 0.78321,5.16369 0.20762,54.97547 -0.8816,76.29511 -1.25362,123.93774 -1.2187,156.07143 0.0241,22.2167 -0.087,33.41674 -0.33952,34.19917 -0.56869,1.76237 -1.92874,2.34597 -2.90667,1.24726 z m 1.52984,-26.42857 c 0.007,-12.71875 0.15734,-65.68324 0.33396,-117.69886 0.34819,-102.54437 0.44737,-96.3493 -1.58514,-99.01405 -2.46288,-3.229 -5.706,-2.96382 -7.125,0.5826 -0.62447,1.5607 -0.60508,2.5328 0.50859,25.50531 1.11806,23.06303 1.9725,48.83858 2.85323,86.07143 0.66594,28.15286 0.9255,37.77589 1.78209,66.07142 1.84464,60.9338 1.87447,61.60715 2.7298,61.60715 0.40959,0 0.49174,-3.78071 0.50247,-23.125 z"
       style="fill:#ffffff;stroke-width:0.357143" />
    <path
       sodipodi:nodetypes="sssssscsssssssssssssssssssss"
       transform="scale(0.26458333)"
       id="path33"
       d="m 402.98291,645.93588 c -1.31716,-1.47983 -1.60025,-4.63853 -1.93691,-14.15179 -0.27742,-7.8394 -0.81483,-20.64417 -1.94858,-46.42857 -0.11228,-2.55357 -0.51412,-9.70536 -0.89298,-15.89286 -1.22249,-19.96566 -1.40225,-23.55498 -1.77977,-35.53571 -0.20426,-6.48214 -0.52399,-15.08036 -0.71052,-19.10714 -0.18653,-4.02679 -0.34381,-10.13393 -0.34951,-13.57143 -0.006,-3.4375 -0.2468,-10.66964 -0.53576,-16.07143 -0.4963,-9.27753 -0.81511,-18.66596 -1.61298,-47.5 -0.18752,-6.77679 -0.7386,-15.9375 -1.07029,-20.35714 -1.19523,-15.92598 -1.54956,-19.2116 1.795,-22.37362 1.53929,-1.45529 3.73502,-1.95774 6.48222,-1.6742 3.54761,0.36615 5.53659,1.90733 6.96244,5.85806 0.73144,2.02665 0.78983,5.5042 0.21102,55.15404 -0.83019,71.21465 -1.06253,121.5782 -1.04511,155.21014 0.0118,22.68838 0.0713,33.8319 -0.18133,34.61403 -0.56927,1.76245 -2.40906,2.92627 -3.38694,1.82762 z m 1.67864,-28.88393 c 0.009,-13.89732 0.15356,-65.6875 0.32103,-115.08929 0.16747,-49.40178 0.17909,-91.55257 0.0258,-93.66841 -0.23877,-3.29626 -0.4146,-4.05239 -1.22818,-5.2818 -1.88346,-2.84609 -4.49386,-3.60323 -6.27658,-1.82051 -1.44654,1.44654 -1.84547,3.34181 -1.60778,7.63825 1.39666,25.24518 2.881,67.87737 3.92654,112.77533 0.50799,21.81418 0.79901,32.54384 1.60316,59.10714 1.82439,60.265 1.88386,61.60715 2.7298,61.60715 0.41,0 0.49233,-4.1102 0.50618,-25.26786 z"
       style="fill:#ffffff;stroke-width:0.357143" />
    <path
       transform="scale(0.26458333)"
       id="path35"
       d="m 403.80027,646.38571 c -0.45258,-0.10804 -0.92546,-0.52715 -1.18952,-1.05428 -0.4559,-0.91005 -0.96254,-2.55955 -1.23318,-4.01496 -0.39054,-2.10015 -0.48518,-3.59855 -0.53997,-8.54911 -0.0224,-2.02567 -0.052,-3.91406 -0.0658,-4.19643 -0.0138,-0.28236 -0.0458,-1.20647 -0.0711,-2.05357 -0.0504,-1.68551 -0.19007,-5.55641 -0.27103,-7.5126 -0.0456,-1.10169 -0.0412,-1.3453 0.0232,-1.27832 0.0249,0.0259 0.32467,7.32869 0.51663,12.58557 0.30884,8.45747 0.55631,11.35979 1.13983,13.36804 0.33663,1.15858 0.94781,2.09512 1.56228,2.39394 0.31605,0.1537 0.8013,0.15338 1.11607,-7.4e-4 0.65033,-0.31844 1.22332,-1.21848 1.31723,-2.06909 0.0665,-0.6022 0.13017,-2.48348 0.17863,-5.27697 0.0435,-2.50435 0.12317,-13.02359 0.14007,-18.48215 0.008,-2.54184 0.008,-2.54307 0.044,-1.11607 0.0778,3.07271 0.2297,14.92352 0.22496,17.54465 -0.0112,6.17026 -0.15054,7.61108 -0.83594,8.64207 -0.51842,0.77981 -1.38443,1.23044 -2.05636,1.07003 z"
       style="fill:#ffffff;stroke-width:0.0446429" />
    <path
       transform="scale(0.26458333)"
       id="path37"
       d=""
       style="fill:#00ffff;stroke-width:0.0446429" />
    <path
       transform="scale(0.26458333)"
       id="path39"
       d="m 403.74335,641.68831 c -0.22512,-1.12442 -0.38524,-3.38997 -0.60685,-8.58613 -0.1212,-2.84176 -0.39749,-10.55925 -0.49146,-13.72767 -0.0135,-0.45424 -0.036,-1.01172 -0.05,-1.23884 -0.0215,-0.34865 -0.0151,-0.41295 0.0414,-0.41295 0.0527,0 0.0727,0.0877 0.0941,0.41295 0.0574,0.87335 0.13661,3.28664 0.31607,9.63169 0.15829,5.59668 0.31257,8.71662 0.60486,12.23215 0.05,0.60156 0.11067,1.27236 0.13478,1.49066 0.0498,0.45099 0.0279,0.55204 -0.0429,0.19814 z"
       style="fill:#ffffff;stroke-width:0.0446429" />
    <path
       transform="scale(0.26458333)"
       id="path41"
       d=""
       style="fill:#00ffff;stroke-width:0.0446429" />
    <path
       transform="scale(0.26458333)"
       id="path43"
       d="m 402.57783,617.59284 c 0,-0.0714 -0.10037,-3.34097 -0.22304,-7.26563 -0.33323,-10.66114 -0.53566,-17.2493 -0.53579,-17.43708 -7e-5,-0.11909 0.0192,-0.16741 0.0669,-0.16741 0.0381,0 0.067,0.0401 0.067,0.0931 0,0.0512 0.0698,1.90445 0.15502,4.1183 0.26073,6.76967 0.35334,10.2098 0.40399,15.00734 0.0145,1.375 0.055,3.01228 0.09,3.63839 0.035,0.62612 0.0765,1.3644 0.0921,1.64063 0.0252,0.4449 0.0202,0.50223 -0.0438,0.50223 -0.0501,0 -0.0723,-0.0399 -0.0723,-0.12988 z"
       style="fill:#ffffff;stroke-width:0.0446429" />
    <path
       transform="scale(0.26458333)"
       id="path45"
       d="m 400.37263,617.48835 c -0.0133,-0.12891 -0.0354,-0.54576 -0.0493,-0.92634 -0.0485,-1.33371 -0.18384,-4.28786 -0.57993,-12.65625 -0.20218,-4.27152 -0.51381,-11.01943 -0.51381,-11.12576 0,-0.0315 0.0402,-0.0573 0.0893,-0.0573 0.0639,0 0.0893,0.0298 0.0893,0.10456 0,0.0575 0.13025,3.10605 0.28943,6.77455 0.15919,3.6685 0.38935,9.05058 0.51147,11.96018 0.12212,2.90959 0.23387,5.48605 0.24833,5.72544 0.0163,0.27062 0.01,0.43527 -0.0172,0.43527 -0.0239,0 -0.0543,-0.10547 -0.0676,-0.23437 z"
       style="fill:#ffffff;stroke-width:0.0446429" />
    <path
       transform="scale(0.26458333)"
       id="path47"
       d=""
       style="fill:#00ffff;stroke-width:0.0446429" />
    <path
       transform="scale(0.26458333)"
       id="path49"
       d=""
       style="fill:#00ffff;stroke-width:0.0446429" />
    <path
       transform="scale(0.26458333)"
       id="path51"
       d="m 401.8007,592.22049 c -0.0149,-0.27623 -0.0873,-2.5413 -0.161,-5.03348 -0.0737,-2.49219 -0.23427,-7.87612 -0.35683,-11.96429 -0.12256,-4.08817 -0.22286,-7.4481 -0.22287,-7.46652 -2e-5,-0.0184 0.0301,-0.0335 0.0669,-0.0335 0.0531,0 0.067,0.0643 0.067,0.31104 0,0.17107 0.0588,2.12475 0.13071,4.34151 0.0719,2.21677 0.14279,4.81397 0.15755,5.77156 0.0511,3.31348 0.34275,12.50461 0.44948,14.16294 0.0222,0.34462 0.0158,0.41295 -0.0387,0.41295 -0.0518,0 -0.0708,-0.10373 -0.0923,-0.50223 z"
       style="fill:#ffffff;stroke-width:0.0446429" />
    <path
       transform="scale(0.26458333)"
       id="path53"
       d="m 399.21113,592.24281 c -0.0364,-0.61856 -0.18344,-4.34325 -0.27097,-6.86384 -0.0375,-1.08036 -0.0874,-2.51674 -0.1109,-3.19196 -0.0332,-0.95433 -0.73723,-12.30784 -0.87411,-14.09599 -0.0239,-0.31192 -0.0178,-0.3683 0.0396,-0.3683 0.0921,0 0.088,-0.051 0.31891,3.88393 0.55625,9.47743 0.69396,12.07847 0.91349,17.25446 0.0729,1.71875 0.14358,3.29074 0.15707,3.49331 0.0227,0.34046 0.0181,0.3683 -0.0601,0.3683 -0.0761,0 -0.0875,-0.0484 -0.11291,-0.47991 z"
       style="fill:#ffffff;stroke-width:0.0446429" />
    <path
       transform="scale(0.26458333)"
       id="path55"
       d="m 401.05989,567.6446 c -4e-5,-0.043 -0.0201,-0.69085 -0.0446,-1.43974 -0.077,-2.3579 -0.35286,-12.09628 -0.55762,-19.6875 -0.102,-3.7816 -0.28348,-11.05537 -0.31188,-12.5 -0.0138,-0.69977 -0.0357,-1.43805 -0.0488,-1.64062 -0.0203,-0.31336 -0.0135,-0.36831 0.0455,-0.36831 0.0381,0 0.0694,0.0151 0.0695,0.0335 8.2e-4,0.15256 0.28602,11.58097 0.35678,14.29687 0.17519,6.72434 0.54923,19.96715 0.59359,21.01563 0.012,0.28326 0.002,0.3683 -0.0434,0.3683 -0.0324,0 -0.059,-0.0352 -0.059,-0.0781 z"
       style="fill:#ffffff;stroke-width:0.0446429" />
    <path
       transform="scale(0.26458333)"
       id="path57"
       d="m 397.91847,567.42138 c -0.0377,-0.4053 -0.43093,-6.88008 -0.65136,-10.72545 -0.54415,-9.49263 -0.85797,-16.49241 -0.93769,-20.91517 -0.0243,-1.35045 -0.057,-2.75168 -0.0726,-3.11384 -0.0189,-0.43954 -0.0131,-0.65849 0.0175,-0.65849 0.0668,0 0.0887,0.39051 0.16581,2.94643 0.28328,9.3945 0.6116,16.0765 1.49577,30.44212 0.15519,2.52142 0.14915,2.32574 0.0718,2.32574 -0.043,0 -0.0695,-0.0895 -0.0892,-0.30134 z"
       style="fill:#ffffff;stroke-width:0.0446429" />
    <path
       transform="scale(0.26458333)"
       id="path59"
       d="m 407.93828,424.58924 c 0.0834,-7.44839 0.0915,-18.14919 0.0156,-20.55029 -0.075,-2.37376 -0.18063,-3.58163 -0.38346,-4.386 -0.13081,-0.51874 -0.57856,-1.53248 -0.97859,-2.21558 -0.36033,-0.61532 -0.81903,-1.21403 -1.29686,-1.69272 l -0.30724,-0.30778 h 0.18269 0.18268 l 0.20463,0.21308 c 0.83513,0.86962 1.6164,2.2741 2.0589,3.70126 0.39204,1.26444 0.62283,2.61905 0.71262,4.18267 0.035,0.61015 -0.008,7.99331 -0.0606,10.35406 -0.0714,3.2168 -0.16232,6.49095 -0.26995,9.72272 -0.0734,2.20497 -0.0744,2.22082 -0.0605,0.97858 z"
       style="fill:#ffffff;stroke-width:0.0315673" />
    <path
       transform="scale(0.26458333)"
       id="path63"
       d=""
       style="fill:#00ffff;stroke-width:0.0315673" />
    <path
       transform="scale(0.26458333)"
       id="path65"
       d=""
       style="fill:#00ffff;stroke-width:0.0315673" />
    <path
       transform="scale(0.26458333)"
       id="path67"
       d=""
       style="fill:#00ffff;stroke-width:0.0315673" />
  </g>
</svg>
