<?xml version="1.0" encoding="UTF-8" standalone="no"?>
<svg
   xmlns:dc="http://purl.org/dc/elements/1.1/"
   xmlns:cc="http://creativecommons.org/ns#"
   xmlns:rdf="http://www.w3.org/1999/02/22-rdf-syntax-ns#"
   xmlns:svg="http://www.w3.org/2000/svg"
   xmlns="http://www.w3.org/2000/svg"
   xmlns:sodipodi="http://sodipodi.sourceforge.net/DTD/sodipodi-0.dtd"
   xmlns:inkscape="http://www.inkscape.org/namespaces/inkscape"
   inkscape:version="1.0 (4035a4fb49, 2020-05-01)"
   sodipodi:docname="stick3.svg"
   viewBox="0 0 24.639999 263.67999"
   height="263.67999"
   width="24.639999"
   id="svg1161"
   version="1.1">
  <metadata
     id="metadata1167">
    <rdf:RDF>
      <cc:Work
         rdf:about="">
        <dc:format>image/svg+xml</dc:format>
        <dc:type
           rdf:resource="http://purl.org/dc/dcmitype/StillImage" />
        <dc:title></dc:title>
      </cc:Work>
    </rdf:RDF>
  </metadata>
  <defs
     id="defs1165" />
  <sodipodi:namedview
     inkscape:current-layer="g1169"
     inkscape:window-maximized="1"
     inkscape:window-y="-8"
     inkscape:window-x="1912"
     inkscape:cy="101.18506"
     inkscape:cx="-79.781007"
     inkscape:zoom="2.2177538"
     showgrid="false"
     id="namedview1163"
     inkscape:window-height="1017"
     inkscape:window-width="1920"
     inkscape:pageshadow="2"
     inkscape:pageopacity="0"
     guidetolerance="10"
     gridtolerance="10"
     objecttolerance="10"
     borderopacity="1"
     bordercolor="#666666"
     pagecolor="#ffffff" />
  <g
     id="g1169"
     inkscape:label="Image"
     inkscape:groupmode="layer">
    <path
       style="fill:#000000;stroke-width:0.32"
       d="m 7.6237837,260.38623 -1.244363,-1.24437 -0.183336,-5.23563 C 5.8059377,242.76451 5.0025417,206.7538 4.6978487,186.75059 4.5222517,175.22258 4.2399887,157.29458 4.0705977,146.91058 3.9012067,136.52658 3.6103347,112.55059 3.4242157,93.630582 3.2380967,74.710583 2.8748417,50.019179 2.6169827,38.760793 2.0132737,12.402338 2.0105807,7.1448262 2.6002027,6.0046212 c 0.689137,-1.332643 3.547542,-3.856805 5.23843,-4.62588 1.209913,-0.550311 2.2716543,-0.708924 5.3495133,-0.799159 l 3.84,-0.11258 1.643455,1.061792 c 2.062669,1.332635 3.309907,2.815806 3.658302,4.350321 0.168052,0.740193 -0.02448,6.6455728 -0.508316,15.5914698 -0.428354,7.92 -1.286306,27.647999 -1.906559,43.839998 -0.620254,16.192 -1.487475,37.576007 -1.92716,47.520007 -0.439684,9.944 -1.229944,28.23199 -1.756134,40.63999 -0.52619,12.408 -1.09898,25.152 -1.272867,28.32 -0.173887,3.16801 -0.469687,11.88001 -0.657333,19.36001 -0.187646,7.48 -0.550707,19.216 -0.806802,26.08 -0.256094,6.864 -0.465842,16.71441 -0.466106,21.8898 l -4.8e-4,9.40979 -0.866979,1.15021 c -1.788164,2.37232 -2.7251473,2.51808 -4.5373833,0.70584 z m 3.1869743,-1.67996 c 0.592599,-1.16159 0.664486,-1.78091 0.585021,-5.04 -0.04983,-2.04363 0.01391,-6.01968 0.141633,-8.83568 0.302461,-6.6684 1.105795,-28.47956 1.320033,-35.84 0.09221,-3.168 0.246317,-7.272 0.342458,-9.12 0.09614,-1.848 0.311995,-7.176 0.479675,-11.84 0.16768,-4.664 0.523156,-12.94401 0.789947,-18.40001 0.266791,-5.456 0.633667,-14.816 0.81528,-20.8 0.181612,-5.984 0.457899,-13.04 0.61397,-15.68 0.156071,-2.63999 0.442643,-8.39999 0.636828,-12.79999 0.194184,-4.4 0.500069,-11.24 0.679745,-15.2 0.794046,-17.50058 2.841818,-68.314316 2.84871,-70.688357 l 0.0041,-1.408352 -6.48,0.214816 c -3.564011,0.11815 -7.3257853,0.304521 -8.3595093,0.414156 l -1.879498,0.199335 0.196143,1.954198 c 0.276861,2.758403 0.761356,26.735106 1.015886,50.274197 0.09135,8.447999 0.230815,17.952007 0.309926,21.120007 0.07911,3.168 0.217775,13.32 0.308144,22.56 0.09037,9.23999 0.235056,18.38399 0.321528,20.31999 0.196659,4.40295 0.446202,17.10531 0.650655,33.12001 0.08651,6.776 0.231374,15.416 0.321926,19.2 0.09055,3.784 0.312025,13.288 0.49216,21.12 0.815328,35.44912 0.820159,35.52 2.42145,35.52 0.418648,0 0.7611783,0.1525 0.7611783,0.33889 0,0.18638 -0.1662503,0.23613 -0.3694433,0.11055 -0.228896,-0.14146 -0.28258,-0.0878 -0.141115,0.14112 0.344823,0.55793 0.4415563,0.4792 1.1731693,-0.95488 z m 7.257389,-226.328322 2.64,-6.4e-4 v -2.523383 -2.523384 l -1.52,0.189273 c -0.836,0.104101 -4.256,0.273105 -7.6,0.375566 -3.3440003,0.102461 -6.5804333,0.228078 -7.1920733,0.27915 l -1.112073,0.09286 -0.08872,2.332251 -0.08872,2.332249 6.160792,-0.276637 c 3.3884363,-0.152166 7.3487923,-0.276947 8.8007923,-0.277305 z m -2.16,-5.591213 4.32,-0.19615 0.09636,-0.829309 0.09636,-0.829309 -5.238457,-0.196927 c -4.841976,-0.182023 -8.9601773,-0.0737 -10.7142713,0.281811 -0.587793,0.119132 -0.72,0.359434 -0.72,1.308683 v 1.162757 l 3.920008,-0.252703 c 2.156,-0.138987 5.8640003,-0.340971 8.2400003,-0.448853 z m 4.611647,-4.11615 c 0.269298,-0.862864 0.310304,-7.424664 0.04804,-7.687378 C 20.286443,14.701333 6.6715087,14.49825 4.8681467,14.749027 l -1.28,0.177998 0.0524,3.91178 c 0.02882,2.151479 0.06482,4.01978 0.08,4.15178 0.01518,0.132 3.761892,0.24 8.3260313,0.24 7.623359,0 8.312655,-0.04556 8.473212,-0.56 z m 0.515694,-10.319999 c 0.415267,-0.658155 0.387199,-4.3586468 -0.04487,-5.9149618 -0.446036,-1.606663 -1.161874,-2.51844 -2.904437,-3.699444 -1.183822,-0.802322 -1.683874,-0.934768 -3.548128,-0.939771 -1.334583,-0.0036 -2.898248,0.239474 -4.061345,0.631293 -1.0401873,0.350414 -2.0955993,0.558699 -2.3453603,0.462857 -0.264781,-0.101606 -1.190276,0.498554 -2.219814,1.439494 -2.047305,1.871121 -2.508631,3.1693 -2.250311,6.3324018 l 0.16267,1.991869 4.842127,0.10987 c 9.1922953,0.208578 12.0369103,0.11346 12.3694683,-0.413608 z"
       id="path1173" />
    <path
       style="fill:#dd876e;fill-opacity:1;stroke:#000000;stroke-width:0;stroke-miterlimit:4;stroke-dasharray:none;stroke-opacity:1"
       d="m 8.5331047,14.334356 c -1.664008,0.01848 -3.345383,0.04032 -4.989335,0.300469 -0.588624,0.585461 -0.125896,1.586424 -0.260612,2.331175 0.07462,2.032297 0.02355,4.101811 0.222654,6.108316 0.758548,0.612366 1.980159,0.219217 2.928354,0.350468 4.5042803,-0.02843 9.0191073,0.120156 13.5167463,-0.128681 1.233292,-0.11602 0.993794,-1.662205 1.042765,-2.531408 -0.03627,-1.962609 0.124658,-3.959806 -0.134511,-5.902884 -0.702568,-0.550592 -1.768038,-0.207224 -2.604057,-0.371838 -3.239237,-0.111641 -6.480867,-0.161768 -9.7220043,-0.155617 z"
       id="path1175" />
    <path
       style="fill:#000000;fill-opacity:1;stroke:#000000;stroke-width:0;stroke-miterlimit:4;stroke-dasharray:none;stroke-opacity:1"
       d="m 20.589212,26.976454 c -3.029461,0.490994 -6.124699,0.410426 -9.18324,0.598869 -2.7144083,0.133145 -5.4429723,0.104823 -8.1452343,0.413072 -0.708198,0.491662 -0.20421,1.615568 -0.360562,2.370743 0.06539,0.907839 -0.26464,1.836327 -0.10026,2.717606 1.16096,0.33915 2.461203,-0.0093 3.675899,0.03442 4.7378163,-0.218253 9.4712223,-0.412965 14.2114783,-0.370077 0.825884,-0.541556 0.208277,-1.90672 0.399483,-2.7914 -0.07754,-0.951901 0.159989,-1.969293 -0.127038,-2.877648 -0.125766,-0.0074 -0.239292,-0.147522 -0.370526,-0.09559 z"
       id="path1177" />
    <path
       id="path1200"
       d="M 12.749618,33.078268 C 9.6384384,33.506441 5.9915131,32.815255 3.2365439,34.209058 4.48601,69.502716 4.5187273,104.82861 5.2101631,140.13627 5.9386256,178.199 6.2163424,216.2814 7.8405233,254.31928 c 0.423607,1.50967 -0.6048715,4.90445 1.9156734,4.80238 2.2311923,-0.30318 1.3191893,-3.57829 1.7111633,-5.09448 2.171761,-70.46947 5.793753,-140.88307 8.435617,-211.334351 -0.08328,-3.230141 0.576483,-6.817693 -0.185226,-9.822536 -2.249856,-0.117322 -4.65891,0.169744 -6.968133,0.207975 z"
       style="fill:#ffffff;fill-opacity:1;stroke:#000000;stroke-width:0;stroke-miterlimit:4;stroke-dasharray:none;stroke-opacity:1" />
    <path
       id="path1202"
       d="M 13.880407,1.7754815 C 9.7195055,1.8613228 3.8932762,3.730776 3.6108317,8.6614956 3.1591237,11.129132 2.9870585,14.073224 6.4665876,12.907949 11.236729,12.839535 16.006859,12.770328 20.77699,12.701162 21.512241,10.697398 21.251378,7.9746957 20.903807,5.7394091 19.460888,3.3100256 16.890921,1.2071074 13.880407,1.7754815 Z"
       style="fill:#ffffff;fill-opacity:1;stroke:#000000;stroke-width:0;stroke-miterlimit:4;stroke-dasharray:none;stroke-opacity:1" />
    <path
       id="path1204"
       d="m 10.17095,24.375885 c -2.0505183,0.08486 -4.1729458,-0.139096 -6.1625382,0.453108 -0.8114927,0.607497 -0.6409288,1.836992 -0.6067497,2.711995 0.3396202,0.584206 1.1943107,0.13208 1.7656447,0.201654 5.0096792,-0.355165 10.0327762,-0.519689 15.0451232,-0.856608 0.661498,-0.31709 0.309479,-1.254429 0.459109,-1.833023 -0.114241,-0.795706 -1.1706,-0.389598 -1.729799,-0.535396 -2.920935,-0.140894 -5.84708,-0.148322 -8.77079,-0.14173 z"
       style="fill:#ffffff;fill-opacity:1;stroke:#000000;stroke-width:0;stroke-miterlimit:4;stroke-dasharray:none;stroke-opacity:1" />
  </g>
</svg>
